<svg xmlns="http://www.w3.org/2000/svg" viewBox="0 0 25 25"><defs><style>.cls-1{fill:#fff;}.cls-2{fill:none;stroke:#fff;stroke-linecap:round;stroke-miterlimit:10;stroke-width:0.7px;}</style></defs><title>Plan de travail 1</title><g id="Calque_1" data-name="Calque 1"><path class="cls-1" d="M17,3.3A4.71,4.71,0,0,1,21.7,8v8A4.71,4.71,0,0,1,17,20.7H9A4.71,4.71,0,0,1,4.3,16V8A4.71,4.71,0,0,1,9,3.3h8M17,2H9A6,6,0,0,0,3,8v8a6,6,0,0,0,6,6h8a6,6,0,0,0,6-6V8a6,6,0,0,0-6-6Z"/><line class="cls-2" x1="8.5" y1="7.5" x2="13.5" y2="7.5"/><line class="cls-2" x1="8.5" y1="11.5" x2="17.5" y2="11.5"/><line class="cls-2" x1="8.5" y1="15.5" x2="17.5" y2="15.5"/></g></svg>